<mxfile host="app.diagrams.net" modified="2022-11-06T13:33:23.780Z" agent="5.0 (Macintosh; Intel Mac OS X 10_15_7) AppleWebKit/537.36 (KHTML, like Gecko) Chrome/107.0.0.0 Safari/537.36" version="20.5.2" etag="uy4mR-GSf7HT_cgTR0O-" type="github">
  <diagram id="C5RBs43oDa-KdzZeNtuy" name="Page-1">
    <mxGraphModel dx="946" dy="532" grid="1" gridSize="10" guides="1" tooltips="1" connect="1" arrows="1" fold="1" page="1" pageScale="1" pageWidth="827" pageHeight="1169" math="0" shadow="0">
      <root>
        <mxCell id="WIyWlLk6GJQsqaUBKTNV-0" />
        <mxCell id="WIyWlLk6GJQsqaUBKTNV-1" parent="WIyWlLk6GJQsqaUBKTNV-0" />
        <mxCell id="pLFm1Ss5g1nG4RSj5yaK-2" value="Number" style="swimlane;fontStyle=2;align=center;verticalAlign=top;childLayout=stackLayout;horizontal=1;startSize=30;horizontalStack=0;resizeParent=1;resizeLast=0;collapsible=1;marginBottom=0;rounded=0;shadow=0;strokeWidth=1;fillColor=#dae8fc;strokeColor=#6c8ebf;" parent="WIyWlLk6GJQsqaUBKTNV-1" vertex="1" collapsed="1">
          <mxGeometry x="330" y="230" width="70" height="26" as="geometry">
            <mxRectangle x="295" y="222" width="120" height="88" as="alternateBounds" />
          </mxGeometry>
        </mxCell>
        <mxCell id="pLFm1Ss5g1nG4RSj5yaK-6" value="Byte" style="swimlane;fontStyle=2;align=center;verticalAlign=top;childLayout=stackLayout;horizontal=1;startSize=26;horizontalStack=0;resizeParent=1;resizeLast=0;collapsible=1;marginBottom=0;rounded=0;shadow=0;strokeWidth=1;fillColor=#d5e8d4;strokeColor=#82b366;" parent="WIyWlLk6GJQsqaUBKTNV-1" vertex="1" collapsed="1">
          <mxGeometry x="49" y="430" width="67" height="26" as="geometry">
            <mxRectangle x="280" y="370" width="70" height="48" as="alternateBounds" />
          </mxGeometry>
        </mxCell>
        <mxCell id="pLFm1Ss5g1nG4RSj5yaK-9" value="Short" style="swimlane;fontStyle=2;align=center;verticalAlign=top;childLayout=stackLayout;horizontal=1;startSize=26;horizontalStack=0;resizeParent=1;resizeLast=0;collapsible=1;marginBottom=0;rounded=0;shadow=0;strokeWidth=1;fillColor=#d5e8d4;strokeColor=#82b366;swimlaneLine=1;" parent="WIyWlLk6GJQsqaUBKTNV-1" vertex="1" collapsed="1">
          <mxGeometry x="157" y="430" width="67" height="26" as="geometry">
            <mxRectangle x="280" y="370" width="70" height="48" as="alternateBounds" />
          </mxGeometry>
        </mxCell>
        <mxCell id="pLFm1Ss5g1nG4RSj5yaK-11" value="Integer" style="swimlane;fontStyle=2;align=center;verticalAlign=top;childLayout=stackLayout;horizontal=1;startSize=26;horizontalStack=0;resizeParent=1;resizeLast=0;collapsible=1;marginBottom=0;rounded=0;shadow=0;strokeWidth=1;fillColor=#d5e8d4;strokeColor=#82b366;" parent="WIyWlLk6GJQsqaUBKTNV-1" vertex="1" collapsed="1">
          <mxGeometry x="267" y="430" width="67" height="26" as="geometry">
            <mxRectangle x="280" y="370" width="70" height="48" as="alternateBounds" />
          </mxGeometry>
        </mxCell>
        <mxCell id="pLFm1Ss5g1nG4RSj5yaK-12" value="Long" style="swimlane;fontStyle=2;align=center;verticalAlign=top;childLayout=stackLayout;horizontal=1;startSize=26;horizontalStack=0;resizeParent=1;resizeLast=0;collapsible=1;marginBottom=0;rounded=0;shadow=0;strokeWidth=1;fillColor=#d5e8d4;strokeColor=#82b366;" parent="WIyWlLk6GJQsqaUBKTNV-1" vertex="1" collapsed="1">
          <mxGeometry x="387" y="430" width="67" height="26" as="geometry">
            <mxRectangle x="387" y="430" width="70" height="48" as="alternateBounds" />
          </mxGeometry>
        </mxCell>
        <mxCell id="pLFm1Ss5g1nG4RSj5yaK-13" value="Float" style="swimlane;fontStyle=2;align=center;verticalAlign=top;childLayout=stackLayout;horizontal=1;startSize=26;horizontalStack=0;resizeParent=1;resizeLast=0;collapsible=1;marginBottom=0;rounded=0;shadow=0;strokeWidth=1;fillColor=#d5e8d4;strokeColor=#82b366;" parent="WIyWlLk6GJQsqaUBKTNV-1" vertex="1" collapsed="1">
          <mxGeometry x="511" y="430" width="67" height="26" as="geometry">
            <mxRectangle x="280" y="370" width="70" height="48" as="alternateBounds" />
          </mxGeometry>
        </mxCell>
        <mxCell id="pLFm1Ss5g1nG4RSj5yaK-14" value="Double" style="swimlane;fontStyle=2;align=center;verticalAlign=top;childLayout=stackLayout;horizontal=1;startSize=26;horizontalStack=0;resizeParent=1;resizeLast=0;collapsible=1;marginBottom=0;rounded=0;shadow=0;strokeWidth=1;fillColor=#d5e8d4;strokeColor=#82b366;" parent="WIyWlLk6GJQsqaUBKTNV-1" vertex="1" collapsed="1">
          <mxGeometry x="637" y="430" width="67" height="26" as="geometry">
            <mxRectangle x="280" y="370" width="70" height="48" as="alternateBounds" />
          </mxGeometry>
        </mxCell>
        <mxCell id="pLFm1Ss5g1nG4RSj5yaK-15" value="" style="endArrow=block;endSize=10;endFill=0;shadow=0;strokeWidth=1;rounded=0;edgeStyle=elbowEdgeStyle;elbow=vertical;entryX=0.5;entryY=1;entryDx=0;entryDy=0;exitX=0.5;exitY=0;exitDx=0;exitDy=0;" parent="WIyWlLk6GJQsqaUBKTNV-1" source="pLFm1Ss5g1nG4RSj5yaK-11" target="pLFm1Ss5g1nG4RSj5yaK-2" edge="1">
          <mxGeometry width="160" relative="1" as="geometry">
            <mxPoint x="310" y="420" as="sourcePoint" />
            <mxPoint x="365" y="336" as="targetPoint" />
            <Array as="points">
              <mxPoint x="350" y="340" />
            </Array>
          </mxGeometry>
        </mxCell>
        <mxCell id="pLFm1Ss5g1nG4RSj5yaK-16" value="" style="endArrow=block;endSize=10;endFill=0;shadow=0;strokeWidth=1;rounded=0;edgeStyle=elbowEdgeStyle;elbow=vertical;exitX=0.5;exitY=0;exitDx=0;exitDy=0;entryX=0.5;entryY=1;entryDx=0;entryDy=0;" parent="WIyWlLk6GJQsqaUBKTNV-1" source="pLFm1Ss5g1nG4RSj5yaK-12" target="pLFm1Ss5g1nG4RSj5yaK-2" edge="1">
          <mxGeometry width="160" relative="1" as="geometry">
            <mxPoint x="320.5" y="440" as="sourcePoint" />
            <mxPoint x="360" y="330" as="targetPoint" />
            <Array as="points">
              <mxPoint x="400" y="340" />
            </Array>
          </mxGeometry>
        </mxCell>
        <mxCell id="pLFm1Ss5g1nG4RSj5yaK-17" value="" style="endArrow=block;endSize=10;endFill=0;shadow=0;strokeWidth=1;rounded=0;edgeStyle=elbowEdgeStyle;elbow=vertical;exitX=0.5;exitY=0;exitDx=0;exitDy=0;entryX=0.5;entryY=1;entryDx=0;entryDy=0;" parent="WIyWlLk6GJQsqaUBKTNV-1" source="pLFm1Ss5g1nG4RSj5yaK-13" target="pLFm1Ss5g1nG4RSj5yaK-2" edge="1">
          <mxGeometry width="160" relative="1" as="geometry">
            <mxPoint x="420.5" y="440" as="sourcePoint" />
            <mxPoint x="365" y="336" as="targetPoint" />
            <Array as="points">
              <mxPoint x="460" y="340" />
            </Array>
          </mxGeometry>
        </mxCell>
        <mxCell id="pLFm1Ss5g1nG4RSj5yaK-18" value="" style="endArrow=block;endSize=10;endFill=0;shadow=0;strokeWidth=1;rounded=0;edgeStyle=elbowEdgeStyle;elbow=vertical;exitX=0.5;exitY=0;exitDx=0;exitDy=0;entryX=0.5;entryY=1;entryDx=0;entryDy=0;" parent="WIyWlLk6GJQsqaUBKTNV-1" source="pLFm1Ss5g1nG4RSj5yaK-14" target="pLFm1Ss5g1nG4RSj5yaK-2" edge="1">
          <mxGeometry width="160" relative="1" as="geometry">
            <mxPoint x="530.5" y="440" as="sourcePoint" />
            <mxPoint x="360" y="330" as="targetPoint" />
            <Array as="points">
              <mxPoint x="510" y="340" />
            </Array>
          </mxGeometry>
        </mxCell>
        <mxCell id="wzh3kh-bKe-XAfiuhADE-0" value="«interface»&lt;br&gt;&lt;b&gt;Serializable&lt;/b&gt;" style="html=1;fillColor=#f5f5f5;fontColor=#333333;strokeColor=#666666;" parent="WIyWlLk6GJQsqaUBKTNV-1" vertex="1">
          <mxGeometry x="319" y="140" width="94" height="50" as="geometry" />
        </mxCell>
        <mxCell id="wzh3kh-bKe-XAfiuhADE-1" value="" style="endArrow=block;dashed=1;endFill=0;endSize=12;html=1;rounded=0;fontColor=#FFFFFF;exitX=0.5;exitY=0;exitDx=0;exitDy=0;entryX=0.5;entryY=1;entryDx=0;entryDy=0;" parent="WIyWlLk6GJQsqaUBKTNV-1" source="pLFm1Ss5g1nG4RSj5yaK-2" target="wzh3kh-bKe-XAfiuhADE-0" edge="1">
          <mxGeometry width="160" relative="1" as="geometry">
            <mxPoint x="330" y="280" as="sourcePoint" />
            <mxPoint x="490" y="280" as="targetPoint" />
          </mxGeometry>
        </mxCell>
        <mxCell id="8" value="BigInteger" style="swimlane;fontStyle=2;align=center;verticalAlign=top;childLayout=stackLayout;horizontal=1;startSize=26;horizontalStack=0;resizeParent=1;resizeLast=0;collapsible=1;marginBottom=0;rounded=0;shadow=0;strokeWidth=1;fillColor=#ffe6cc;strokeColor=#d79b00;" parent="WIyWlLk6GJQsqaUBKTNV-1" vertex="1" collapsed="1">
          <mxGeometry x="98" y="523" width="80" height="26" as="geometry">
            <mxRectangle x="280" y="370" width="70" height="48" as="alternateBounds" />
          </mxGeometry>
        </mxCell>
        <mxCell id="9" value="BigDecimal" style="swimlane;fontStyle=2;align=center;verticalAlign=top;childLayout=stackLayout;horizontal=1;startSize=26;horizontalStack=0;resizeParent=1;resizeLast=0;collapsible=1;marginBottom=0;rounded=0;shadow=0;strokeWidth=1;fillColor=#ffe6cc;strokeColor=#d79b00;" parent="WIyWlLk6GJQsqaUBKTNV-1" vertex="1" collapsed="1">
          <mxGeometry x="209" y="523" width="90" height="26" as="geometry">
            <mxRectangle x="280" y="370" width="70" height="48" as="alternateBounds" />
          </mxGeometry>
        </mxCell>
        <mxCell id="12" value="" style="endArrow=block;endSize=10;endFill=0;shadow=0;strokeWidth=1;rounded=0;edgeStyle=elbowEdgeStyle;elbow=vertical;entryX=0.5;entryY=1;entryDx=0;entryDy=0;exitX=0.5;exitY=0;exitDx=0;exitDy=0;" parent="WIyWlLk6GJQsqaUBKTNV-1" source="9" target="pLFm1Ss5g1nG4RSj5yaK-2" edge="1">
          <mxGeometry width="160" relative="1" as="geometry">
            <mxPoint x="373" y="520" as="sourcePoint" />
            <mxPoint x="405" y="266" as="targetPoint" />
            <Array as="points">
              <mxPoint x="360" y="340" />
              <mxPoint x="360" y="420" />
              <mxPoint x="360" y="400" />
              <mxPoint x="360" y="350" />
            </Array>
          </mxGeometry>
        </mxCell>
        <mxCell id="13" value="" style="endArrow=block;endSize=10;endFill=0;shadow=0;strokeWidth=1;rounded=0;edgeStyle=elbowEdgeStyle;elbow=vertical;entryX=0.5;entryY=1;entryDx=0;entryDy=0;exitX=0.5;exitY=0;exitDx=0;exitDy=0;" parent="WIyWlLk6GJQsqaUBKTNV-1" source="8" target="pLFm1Ss5g1nG4RSj5yaK-2" edge="1">
          <mxGeometry width="160" relative="1" as="geometry">
            <mxPoint x="360.5" y="533" as="sourcePoint" />
            <mxPoint x="405" y="266" as="targetPoint" />
            <Array as="points">
              <mxPoint x="320" y="340" />
              <mxPoint x="370" y="430" />
              <mxPoint x="370" y="410" />
              <mxPoint x="370" y="360" />
            </Array>
          </mxGeometry>
        </mxCell>
        <mxCell id="17" value="" style="endArrow=block;endSize=10;endFill=0;shadow=0;strokeWidth=1;rounded=0;edgeStyle=elbowEdgeStyle;elbow=vertical;entryX=0.5;entryY=1;entryDx=0;entryDy=0;exitX=0.5;exitY=0;exitDx=0;exitDy=0;" parent="WIyWlLk6GJQsqaUBKTNV-1" source="pLFm1Ss5g1nG4RSj5yaK-9" target="pLFm1Ss5g1nG4RSj5yaK-2" edge="1">
          <mxGeometry width="160" relative="1" as="geometry">
            <mxPoint x="251" y="533" as="sourcePoint" />
            <mxPoint x="375" y="266" as="targetPoint" />
            <Array as="points">
              <mxPoint x="290" y="340" />
              <mxPoint x="380" y="440" />
              <mxPoint x="380" y="420" />
              <mxPoint x="380" y="370" />
            </Array>
          </mxGeometry>
        </mxCell>
        <mxCell id="18" value="" style="endArrow=block;endSize=10;endFill=0;shadow=0;strokeWidth=1;rounded=0;edgeStyle=elbowEdgeStyle;elbow=vertical;entryX=0.5;entryY=1;entryDx=0;entryDy=0;exitX=0.5;exitY=0;exitDx=0;exitDy=0;" parent="WIyWlLk6GJQsqaUBKTNV-1" source="pLFm1Ss5g1nG4RSj5yaK-6" target="pLFm1Ss5g1nG4RSj5yaK-2" edge="1">
          <mxGeometry width="160" relative="1" as="geometry">
            <mxPoint x="210.5000000000001" y="439.9999999999999" as="sourcePoint" />
            <mxPoint x="375" y="266" as="targetPoint" />
            <Array as="points">
              <mxPoint x="160" y="340" />
              <mxPoint x="300" y="350" />
              <mxPoint x="390" y="450" />
              <mxPoint x="390" y="430" />
              <mxPoint x="390" y="380" />
            </Array>
          </mxGeometry>
        </mxCell>
        <mxCell id="19" value="Stripted64" style="swimlane;fontStyle=2;align=center;verticalAlign=top;childLayout=stackLayout;horizontal=1;startSize=26;horizontalStack=0;resizeParent=1;resizeLast=0;collapsible=1;marginBottom=0;rounded=0;shadow=0;strokeWidth=1;fillColor=#e1d5e7;strokeColor=#9673a6;" parent="WIyWlLk6GJQsqaUBKTNV-1" vertex="1" collapsed="1">
          <mxGeometry x="320" y="523" width="90" height="26" as="geometry">
            <mxRectangle x="280" y="370" width="70" height="48" as="alternateBounds" />
          </mxGeometry>
        </mxCell>
        <mxCell id="20" value="AutomaticInteger" style="swimlane;fontStyle=2;align=center;verticalAlign=top;childLayout=stackLayout;horizontal=1;startSize=26;horizontalStack=0;resizeParent=1;resizeLast=0;collapsible=1;marginBottom=0;rounded=0;shadow=0;strokeWidth=1;fillColor=#e1d5e7;strokeColor=#9673a6;" parent="WIyWlLk6GJQsqaUBKTNV-1" vertex="1" collapsed="1">
          <mxGeometry x="426" y="523" width="110" height="26" as="geometry">
            <mxRectangle x="280" y="370" width="70" height="48" as="alternateBounds" />
          </mxGeometry>
        </mxCell>
        <mxCell id="21" value="AutomaticLong" style="swimlane;fontStyle=2;align=center;verticalAlign=top;childLayout=stackLayout;horizontal=1;startSize=26;horizontalStack=0;resizeParent=1;resizeLast=0;collapsible=1;marginBottom=0;rounded=0;shadow=0;strokeWidth=1;fillColor=#e1d5e7;strokeColor=#9673a6;" parent="WIyWlLk6GJQsqaUBKTNV-1" vertex="1" collapsed="1">
          <mxGeometry x="554" y="523" width="110" height="26" as="geometry">
            <mxRectangle x="280" y="370" width="70" height="48" as="alternateBounds" />
          </mxGeometry>
        </mxCell>
        <mxCell id="22" value="" style="endArrow=block;endSize=10;endFill=0;shadow=0;strokeWidth=1;rounded=0;edgeStyle=elbowEdgeStyle;elbow=vertical;entryX=0.5;entryY=1;entryDx=0;entryDy=0;exitX=0.5;exitY=0;exitDx=0;exitDy=0;" parent="WIyWlLk6GJQsqaUBKTNV-1" source="19" target="pLFm1Ss5g1nG4RSj5yaK-2" edge="1">
          <mxGeometry width="160" relative="1" as="geometry">
            <mxPoint x="320.5000000000001" y="439.9999999999999" as="sourcePoint" />
            <mxPoint x="375" y="266" as="targetPoint" />
            <Array as="points">
              <mxPoint x="360" y="350" />
            </Array>
          </mxGeometry>
        </mxCell>
        <mxCell id="23" value="" style="endArrow=block;endSize=10;endFill=0;shadow=0;strokeWidth=1;rounded=0;edgeStyle=elbowEdgeStyle;elbow=vertical;entryX=0.5;entryY=1;entryDx=0;entryDy=0;exitX=0.5;exitY=0;exitDx=0;exitDy=0;" parent="WIyWlLk6GJQsqaUBKTNV-1" source="20" target="pLFm1Ss5g1nG4RSj5yaK-2" edge="1">
          <mxGeometry width="160" relative="1" as="geometry">
            <mxPoint x="375" y="533" as="sourcePoint" />
            <mxPoint x="375" y="266" as="targetPoint" />
            <Array as="points">
              <mxPoint x="420" y="340" />
            </Array>
          </mxGeometry>
        </mxCell>
        <mxCell id="24" value="" style="endArrow=block;endSize=10;endFill=0;shadow=0;strokeWidth=1;rounded=0;edgeStyle=elbowEdgeStyle;elbow=vertical;entryX=0.5;entryY=1;entryDx=0;entryDy=0;exitX=0.5;exitY=0;exitDx=0;exitDy=0;" parent="WIyWlLk6GJQsqaUBKTNV-1" source="21" target="pLFm1Ss5g1nG4RSj5yaK-2" edge="1">
          <mxGeometry width="160" relative="1" as="geometry">
            <mxPoint x="491" y="533" as="sourcePoint" />
            <mxPoint x="375" y="266" as="targetPoint" />
            <Array as="points">
              <mxPoint x="490" y="340" />
            </Array>
          </mxGeometry>
        </mxCell>
        <mxCell id="25" value="DoubleAdder" style="swimlane;fontStyle=2;align=center;verticalAlign=top;childLayout=stackLayout;horizontal=1;startSize=26;horizontalStack=0;resizeParent=1;resizeLast=0;collapsible=1;marginBottom=0;rounded=0;shadow=0;strokeWidth=1;fillColor=#e1d5e7;strokeColor=#9673a6;" parent="WIyWlLk6GJQsqaUBKTNV-1" vertex="1" collapsed="1">
          <mxGeometry x="70" y="670" width="131" height="26" as="geometry">
            <mxRectangle x="280" y="370" width="70" height="48" as="alternateBounds" />
          </mxGeometry>
        </mxCell>
        <mxCell id="26" value="DoubleAccumulator" style="swimlane;fontStyle=2;align=center;verticalAlign=top;childLayout=stackLayout;horizontal=1;startSize=26;horizontalStack=0;resizeParent=1;resizeLast=0;collapsible=1;marginBottom=0;rounded=0;shadow=0;strokeWidth=1;fillColor=#e1d5e7;strokeColor=#9673a6;" parent="WIyWlLk6GJQsqaUBKTNV-1" vertex="1" collapsed="1">
          <mxGeometry x="227" y="669" width="131" height="26" as="geometry">
            <mxRectangle x="280" y="370" width="70" height="48" as="alternateBounds" />
          </mxGeometry>
        </mxCell>
        <mxCell id="27" value="DoubleAdder" style="swimlane;fontStyle=2;align=center;verticalAlign=top;childLayout=stackLayout;horizontal=1;startSize=26;horizontalStack=0;resizeParent=1;resizeLast=0;collapsible=1;marginBottom=0;rounded=0;shadow=0;strokeWidth=1;fillColor=#e1d5e7;strokeColor=#9673a6;" parent="WIyWlLk6GJQsqaUBKTNV-1" vertex="1" collapsed="1">
          <mxGeometry x="379" y="670" width="131" height="26" as="geometry">
            <mxRectangle x="280" y="370" width="70" height="48" as="alternateBounds" />
          </mxGeometry>
        </mxCell>
        <mxCell id="28" value="DoubleAccumulator" style="swimlane;fontStyle=2;align=center;verticalAlign=top;childLayout=stackLayout;horizontal=1;startSize=26;horizontalStack=0;resizeParent=1;resizeLast=0;collapsible=1;marginBottom=0;rounded=0;shadow=0;strokeWidth=1;fillColor=#e1d5e7;strokeColor=#9673a6;" parent="WIyWlLk6GJQsqaUBKTNV-1" vertex="1" collapsed="1">
          <mxGeometry x="540" y="670" width="131" height="26" as="geometry">
            <mxRectangle x="280" y="370" width="70" height="48" as="alternateBounds" />
          </mxGeometry>
        </mxCell>
        <mxCell id="29" value="" style="endArrow=block;endSize=10;endFill=0;shadow=0;strokeWidth=1;rounded=0;edgeStyle=elbowEdgeStyle;elbow=vertical;entryX=0.5;entryY=1;entryDx=0;entryDy=0;exitX=0.5;exitY=0;exitDx=0;exitDy=0;" parent="WIyWlLk6GJQsqaUBKTNV-1" source="25" target="19" edge="1">
          <mxGeometry width="160" relative="1" as="geometry">
            <mxPoint x="148" y="533" as="sourcePoint" />
            <mxPoint x="375" y="266" as="targetPoint" />
            <Array as="points">
              <mxPoint x="280" y="600" />
              <mxPoint x="380" y="440" />
              <mxPoint x="380" y="420" />
              <mxPoint x="380" y="370" />
            </Array>
          </mxGeometry>
        </mxCell>
        <mxCell id="30" value="" style="endArrow=block;endSize=10;endFill=0;shadow=0;strokeWidth=1;rounded=0;edgeStyle=elbowEdgeStyle;elbow=vertical;entryX=0.5;entryY=1;entryDx=0;entryDy=0;exitX=0.5;exitY=0;exitDx=0;exitDy=0;" parent="WIyWlLk6GJQsqaUBKTNV-1" source="26" target="19" edge="1">
          <mxGeometry width="160" relative="1" as="geometry">
            <mxPoint x="145.5" y="680" as="sourcePoint" />
            <mxPoint x="375" y="558.9999999999998" as="targetPoint" />
            <Array as="points">
              <mxPoint x="330" y="600" />
              <mxPoint x="290" y="610" />
              <mxPoint x="390" y="450" />
              <mxPoint x="390" y="430" />
              <mxPoint x="390" y="380" />
            </Array>
          </mxGeometry>
        </mxCell>
        <mxCell id="31" value="" style="endArrow=block;endSize=10;endFill=0;shadow=0;strokeWidth=1;rounded=0;edgeStyle=elbowEdgeStyle;elbow=vertical;exitX=0.5;exitY=0;exitDx=0;exitDy=0;entryX=0.5;entryY=1;entryDx=0;entryDy=0;" parent="WIyWlLk6GJQsqaUBKTNV-1" source="27" target="19" edge="1">
          <mxGeometry width="160" relative="1" as="geometry">
            <mxPoint x="302.5" y="679" as="sourcePoint" />
            <mxPoint x="370" y="550" as="targetPoint" />
            <Array as="points">
              <mxPoint x="410" y="600" />
              <mxPoint x="300" y="620" />
              <mxPoint x="400" y="460" />
              <mxPoint x="400" y="440" />
              <mxPoint x="400" y="390" />
            </Array>
          </mxGeometry>
        </mxCell>
        <mxCell id="32" value="" style="endArrow=block;endSize=10;endFill=0;shadow=0;strokeWidth=1;rounded=0;edgeStyle=elbowEdgeStyle;elbow=vertical;exitX=0.5;exitY=0;exitDx=0;exitDy=0;entryX=0.5;entryY=1;entryDx=0;entryDy=0;" parent="WIyWlLk6GJQsqaUBKTNV-1" source="28" target="19" edge="1">
          <mxGeometry width="160" relative="1" as="geometry">
            <mxPoint x="454.5" y="680" as="sourcePoint" />
            <mxPoint x="375" y="559" as="targetPoint" />
            <Array as="points">
              <mxPoint x="490" y="600" />
              <mxPoint x="310" y="630" />
              <mxPoint x="410" y="470" />
              <mxPoint x="410" y="450" />
              <mxPoint x="410" y="400" />
            </Array>
          </mxGeometry>
        </mxCell>
      </root>
    </mxGraphModel>
  </diagram>
</mxfile>
